<?xml version="1.0" encoding="utf-8"?>
<!-- Generator: Adobe Illustrator 25.3.0, SVG Export Plug-In . SVG Version: 6.00 Build 0)  -->
<svg version="1.1" id="Layer_1" xmlns="http://www.w3.org/2000/svg" xmlns:xlink="http://www.w3.org/1999/xlink" x="0px" y="0px"
	 viewBox="0 0 512 512" style="enable-background:new 0 0 512 512;" xml:space="preserve">
<style type="text/css">
	.st0{fill:#B3404A;}
	.st1{fill:#F4B2B0;}
</style>
<path class="st0" d="M256,512C114.84,512,0,397.16,0,256S114.84,0,256,0c48.07,0,94.92,13.4,135.5,38.76
	c39.45,24.65,71.47,59.56,92.61,100.92c3.85,7.54,0.86,16.76-6.67,20.61c-7.54,3.85-16.76,0.86-20.61-6.67
	C418.07,77.76,341.12,30.64,256,30.64C131.74,30.64,30.64,131.74,30.64,256c0,124.27,101.1,225.36,225.36,225.36
	S481.36,380.27,481.36,256c0-8.46,6.86-15.32,15.32-15.32S512,247.54,512,256C512,397.16,397.16,512,256,512z"/>
<g>
	<polygon class="st1" points="370.22,167.24 242.55,80.33 242.55,254.14 	"/>
	<polygon class="st1" points="370.22,344.76 242.55,257.86 242.55,431.67 	"/>
</g>
<path class="st0" d="M378.84,332.1L267.4,256.24l60.1-41.23c0.53-0.37,1.02-0.77,1.5-1.19l49.84-33.93c4.19-2.85,6.7-7.59,6.7-12.66
	c0-5.07-2.51-9.81-6.7-12.66L251.17,67.66c-4.69-3.19-10.76-3.53-15.78-0.88c-5.02,2.65-8.16,7.87-8.16,13.54v149.85l-76.94-51.4
	c-7.04-4.7-16.55-2.81-21.25,4.23c-4.7,7.03-2.81,16.55,4.23,21.25l78.92,52.72l-79.07,54.25c-6.98,4.79-8.75,14.32-3.97,21.3
	c2.97,4.33,7.76,6.65,12.65,6.65c2.99,0,6-0.87,8.65-2.69l76.79-52.68v147.87c0,5.68,3.14,10.89,8.16,13.54
	c2.25,1.19,4.71,1.78,7.16,1.78c3.02,0,6.03-0.89,8.62-2.65l127.67-86.91c4.19-2.85,6.7-7.59,6.7-12.66S383.03,334.95,378.84,332.1z
	 M257.87,109.29L343,167.24l-85.13,57.95L257.87,109.29L257.87,109.29z M257.87,402.71V287.49l52.96,35.38l32.17,21.9L257.87,402.71
	z"/>
</svg>
